<?xml version="1.0" encoding="UTF-8"?>
<svg id="Layer_1" xmlns="http://www.w3.org/2000/svg" version="1.1" viewBox="0 0 669.39 189.8">
  <!-- Generator: Adobe Illustrator 30.2.1, SVG Export Plug-In . SVG Version: 2.1.1 Build 1)  -->
  <defs>
    <style>
      .st0 {
        fill: #fff;
      }

      .st1 {
        fill: #ba8c17;
      }
    </style>
  </defs>
  <rect class="st0" x="70.27" y="33.98" width="51.53" height="17.74"/>
  <rect class="st0" x="70.27" y="56.97" width="40.47" height="17.73"/>
  <rect class="st0" x="70.27" y="79.96" width="17.96" height="17.74"/>
  <polygon class="st1" points="34.38 62.65 34.38 72.23 70.26 51.71 70.26 33.98 34.38 62.65"/>
  <polygon class="st1" points="34.38 75.29 34.38 84.79 70.26 74.7 70.26 56.97 34.38 75.29"/>
  <polygon class="st1" points="34.38 87.85 34.38 97.7 70.26 97.7 70.26 79.97 34.38 87.85"/>
  <polygon class="st0" points="140.62 33.98 192.25 33.98 192.25 49.45 158.51 49.45 158.51 60.29 189.02 60.29 189.02 74.94 158.51 74.94 158.51 97.7 140.62 97.7 140.62 33.98"/>
  <path class="st0" d="M249.27,66.02v-.18c0-9.19-6.73-17.2-16.59-17.2s-16.32,7.83-16.32,17.02v.18c0,9.19,6.73,17.2,16.5,17.2s16.41-7.83,16.41-17.02M198.02,66.02v-.18c0-18.3,14.93-33.13,34.85-33.13s34.66,14.66,34.66,32.95v.18c0,18.3-14.93,33.14-34.85,33.14s-34.66-14.66-34.66-32.95"/>
  <polygon class="st0" points="276.1 33.98 292.79 33.98 319.34 67.66 319.34 33.98 337.04 33.98 337.04 97.7 321.37 97.7 293.8 62.74 293.8 97.7 276.1 97.7 276.1 33.98"/>
  <polygon class="st0" points="364.35 49.45 344.99 49.45 344.99 33.98 401.59 33.98 401.59 49.45 382.23 49.45 382.23 97.7 364.35 97.7 364.35 49.45"/>
  <path class="st0" d="M439.76,72.58l-7.19-18.11-7.28,18.11h14.47ZM424.09,33.53h17.24l27.47,64.18h-19.17l-4.7-11.38h-24.89l-4.61,11.38h-18.81l27.47-64.18Z"/>
  <rect class="st0" x="476.2" y="33.98" width="17.98" height="63.72"/>
  <polygon class="st0" points="507.91 33.98 524.6 33.98 551.15 67.66 551.15 33.98 568.85 33.98 568.85 97.7 553.18 97.7 525.61 62.74 525.61 97.7 507.91 97.7 507.91 33.98"/>
  <polygon class="st0" points="582.65 33.98 582.65 97.7 635.01 97.7 635.01 82.68 600.35 82.68 600.35 72.58 631.32 72.58 631.32 58.65 600.35 58.65 600.35 49 634.55 49 634.55 33.98 582.65 33.98"/>
  <rect class="st1" x="39.82" y="134.02" width="81.98" height="4.02"/>
  <rect class="st1" x="549.62" y="134.02" width="85.39" height="4.02"/>
  <path class="st0" d="M140.19,144.91h3.35v-20.28h-3.35v-3.91h12.83c2.09,0,3.54.16,5,.75,2.52.99,4.25,3.32,4.25,6.48,0,2.65-1.22,4.86-3.43,6.01v.08c3.11.95,4.53,3.68,4.53,6.64,0,3.91-2.52,6.68-5.55,7.63-1.38.43-2.64.47-4.17.47h-13.46v-3.88ZM153.62,132.18c2.2,0,3.43-1.5,3.43-3.68,0-1.38-.51-2.61-1.61-3.2-.59-.28-1.42-.43-2.4-.43h-4.33v7.31h4.92ZM153.89,144.64c.67,0,1.42-.04,2.01-.32,1.42-.59,2.24-2.17,2.24-3.95,0-2.41-1.5-4.07-4.05-4.07h-5.39v8.34h5.2Z"/>
  <path class="st0" d="M169.32,132.38h-3.11v-3.76h8.11v12.1c0,2.41.63,4.07,3.15,4.07,3.46,0,5.55-3.56,5.55-7.2v-5.22h-3.07v-3.76h8.07v15.58c0,.59.28.87.87.87h1.93v3.72h-4.96c-1.77,0-2.6-.83-2.6-2.25v-.75c0-.28.04-.51.04-.67v-.28h-.08c-.24.67-2.32,4.43-7.32,4.43-3.98,0-6.57-2.17-6.57-7.67v-9.21Z"/>
  <path class="st0" d="M193.81,145.03h2.91v-12.65h-3.11v-3.76h8.11v16.41h2.87v3.76h-10.79v-3.76ZM196.68,120.72h5.04v4.47h-5.04v-4.47Z"/>
  <path class="st0" d="M208.5,124.47h-3.11v-3.76h8.07v21.35c0,1.86.35,2.77,2.05,2.77.28,0,.51-.04.67-.04h.28v4.03l-.55.08c-.31.04-.75.04-1.26.04-3.19,0-6.14-1.07-6.14-6.56v-17.91Z"/>
  <path class="st0" d="M228.26,128.15c2.2,0,3.58.67,4.49,1.42.51.44.94.91,1.3,1.42h.08c0-.12,0-.28-.04-.4-.04-.28-.04-.59-.04-1.03v-5.1h-3.11v-3.76h8.07v23.44c0,.59.28.87.87.87h1.81v3.76h-4.72c-1.85,0-2.56-.99-2.56-2.13v-.24c0-.24.04-.47.08-.67.04-.12.04-.2.04-.24h-.08c-.35.67-.83,1.3-1.42,1.86-1.06.95-2.64,1.9-5.16,1.9-5.35,0-8.78-4.35-8.78-10.56s3.74-10.56,9.17-10.56ZM229.08,145.03c2.68,0,5.08-1.9,5.08-6.21,0-3.28-1.61-6.37-4.92-6.37-2.83,0-5.12,2.25-5.12,6.25s2.01,6.33,4.96,6.33Z"/>
  <path class="st0" d="M244.71,145.03h2.91v-12.65h-3.11v-3.76h8.11v16.41h2.87v3.76h-10.79v-3.76ZM247.59,120.72h5.04v4.47h-5.04v-4.47Z"/>
  <path class="st0" d="M258.49,145.03h2.91v-11.78c0-.59-.28-.87-.87-.87h-2.24v-3.76h5.27c1.77,0,2.6.83,2.6,2.25v.91c0,.2,0,.44-.04.59-.04.12-.04.2-.04.28h.08c.2-.63,2.4-4.51,7.4-4.51,4.29,0,6.73,2.29,6.73,7.67v9.21h2.91v3.76h-7.87v-11.94c0-2.49-.67-4.11-3.19-4.11-3.62,0-5.75,3.48-5.75,7v5.3h2.87v3.76h-10.79v-3.76Z"/>
  <path class="st0" d="M288.96,151.63c.47.24,1.02.47,1.61.67,1.06.36,2.4.67,3.94.67,3.07,0,5.67-1.38,5.67-5.06v-1.26c0-.28,0-.51.04-.71.04-.12.04-.24.04-.36h-.08c-1.22,1.78-2.91,2.81-5.59,2.81-5.79,0-9.02-4.67-9.02-10.2s3.07-10.04,8.9-10.04c2.36,0,5.16.95,6.22,3.04h.08s0-.12-.04-.2c-.04-.08-.04-.24-.04-.47,0-1.07.71-1.9,2.28-1.9h5v3.76h-1.93c-.59,0-.87.28-.87.79v14.39c0,6.92-5.39,9.53-10.59,9.53-2.52,0-5.16-.67-7.17-1.74l1.54-3.72ZM300.3,138.23c0-4.59-2.28-5.81-4.96-5.81-3.03,0-4.72,2.17-4.72,5.61s1.77,6.13,5.04,6.13c2.36,0,4.65-1.38,4.65-5.93Z"/>
  <path class="st0" d="M325.58,139.73v2.1c0,1.78,2.28,2.89,4.92,2.89,2.83,0,4.84-1.23,4.84-3.48,0-2.81-3.19-3.76-6.42-5.02-3.74-1.46-7.4-3.08-7.4-8.14,0-5.65,4.53-7.83,9.37-7.83,4.41,0,8.86,1.66,8.86,4.94v3.68h-4.69v-1.9c0-1.42-2.09-2.17-4.17-2.17-2.28,0-4.17.95-4.17,3.08,0,2.61,2.64,3.44,5.51,4.59,4.21,1.46,8.35,3.2,8.35,8.42,0,5.73-4.8,8.38-10.08,8.38-4.65,0-9.61-2.1-9.61-6.33v-3.2h4.68Z"/>
  <path class="st0" d="M344.08,145.03h2.91v-12.65h-3.11v-3.76h8.11v16.41h2.87v3.76h-10.79v-3.76ZM346.95,120.72h5.04v4.47h-5.04v-4.47Z"/>
  <path class="st0" d="M357.86,145.03h2.91v-11.78c0-.59-.28-.87-.87-.87h-2.24v-3.76h5.28c1.77,0,2.6.83,2.6,2.25v.91c0,.2,0,.44-.04.59-.04.12-.04.2-.04.28h.08c.2-.63,2.4-4.51,7.4-4.51,4.29,0,6.73,2.29,6.73,7.67v9.21h2.91v3.76h-7.87v-11.94c0-2.49-.67-4.11-3.19-4.11-3.62,0-5.75,3.48-5.75,7v5.3h2.87v3.76h-10.79v-3.76Z"/>
  <path class="st0" d="M395.61,128.15c3.35,0,8.23,1.26,8.23,4.82v2.77h-4.33v-1.34c0-1.38-2.05-1.98-3.74-1.98-3.66,0-5.91,2.53-5.91,6.21,0,4.15,2.87,6.41,6.3,6.41,2.83,0,5.16-1.58,6.26-2.45l1.77,3.56c-1.38,1.3-4.45,3.12-8.31,3.12-5.87,0-11.06-4.03-11.06-10.52,0-6.01,4.61-10.6,10.79-10.6Z"/>
  <path class="st0" d="M417.03,128.15c5.79,0,8.94,4.23,8.94,9.57,0,.28,0,.71-.04,1.07l-.08.63h-13.9c.31,3.68,2.99,5.61,6.02,5.61,1.69,0,3.07-.47,4.13-1.07.63-.32,1.18-.67,1.69-1.07l1.93,3.56c-.59.51-1.34.95-2.17,1.38-1.42.75-3.42,1.42-5.94,1.42-6.65,0-10.79-4.86-10.79-10.56,0-6.21,4.17-10.56,10.2-10.56ZM420.81,136.45c-.12-2.81-1.73-4.43-3.9-4.43-2.56,0-4.37,1.74-4.84,4.43h8.74Z"/>
  <path class="st1" d="M439.19,143.25h5.98v-12.18c0-.59.04-1.07.04-1.5v-.67h-.08c-.08.16-.16.32-.28.47-.2.28-.39.67-.83,1.03l-1.69,1.54-3.98-4.27,7.6-7.16h5.94v22.73h6.02v5.54h-18.74v-5.54Z"/>
  <path class="st1" d="M469.94,120.05c5.94,0,11.38,4.35,11.38,13.2,0,8.11-4.57,16.01-13.78,16.01-1.85,0-3.35-.32-4.41-.63-.63-.2-1.18-.4-1.69-.59l1.81-5.73c.35.16.79.28,1.22.4.75.2,1.73.43,2.79.43,3.46,0,5.31-2.13,6.22-4.98h-.08c-.79.59-2.56.99-4.29.99-5.75,0-9.29-4.82-9.29-9.45,0-4.86,3.94-9.65,10.12-9.65ZM471.48,133.57c1.46,0,2.76-.67,2.76-2.61,0-2.65-2.28-4.78-4.33-4.78-1.69,0-2.99,1.58-2.99,3.52s1.18,3.87,4.57,3.87Z"/>
  <path class="st1" d="M485.02,120.52h18.58v4.9l-5.28,6.48c3.78.91,6.18,3.79,6.18,7.71,0,4.82-3.39,9.65-10.63,9.65-3.15,0-5.55-.91-7.17-1.86-.95-.55-1.77-1.19-2.44-1.86l3.19-4.94c.51.47,1.1.91,1.73,1.27,1.06.63,2.56,1.26,4.17,1.26,2.56,0,4.02-1.42,4.02-3.2,0-1.9-1.5-3.2-4.45-3.2-.43,0-.91.04-1.38.08l-1.46-3.16,4.92-6.29c.28-.36.59-.67.91-.95l.43-.4v-.08c-.2,0-.39,0-.59.04-.35.04-.75.08-1.18.08h-3.66v2.97h-5.9v-8.5Z"/>
  <path class="st1" d="M508.28,120.52h18.58v4.9l-5.28,6.48c3.78.91,6.18,3.79,6.18,7.71,0,4.82-3.39,9.65-10.63,9.65-3.15,0-5.55-.91-7.17-1.86-.95-.55-1.77-1.19-2.44-1.86l3.19-4.94c.51.47,1.1.91,1.73,1.27,1.06.63,2.56,1.26,4.17,1.26,2.56,0,4.02-1.42,4.02-3.2,0-1.9-1.5-3.2-4.45-3.2-.43,0-.91.04-1.38.08l-1.46-3.16,4.92-6.29c.28-.36.59-.67.91-.95l.43-.4v-.08c-.2,0-.39,0-.59.04-.35.04-.75.08-1.18.08h-3.66v2.97h-5.9v-8.5Z"/>
</svg>